<svg width="512" height="512" viewBox="0 0 512 512" xmlns="http://www.w3.org/2000/svg" role="img">
  <title>SAHNE.TODAY uygulama ikonu</title>

  <!-- Arka plan -->
  <rect width="512" height="512" fill="#0a0a0f" rx="110"/>

  <!-- Sol geometri -->
  <polygon points="60,180 160,380 60,380" fill="#7b2fff" opacity="0.2"/>
  <polygon points="60,180 160,380 60,380" stroke="#7b2fff" stroke-width="1.5" fill="none" opacity="0.5"/>

  <!-- Sağ geometri -->
  <polygon points="452,180 352,380 452,380" fill="#00ffe0" opacity="0.15"/>
  <polygon points="452,180 352,380 452,380" stroke="#00ffe0" stroke-width="1.5" fill="none" opacity="0.5"/>

  <!-- Sol çizgiler -->
  <line x1="60" y1="210" x2="175" y2="210" stroke="#7b2fff" stroke-width="2" opacity="0.7"/>
  <line x1="60" y1="232" x2="145" y2="232" stroke="#7b2fff" stroke-width="1" opacity="0.35"/>

  <!-- Sağ çizgiler -->
  <line x1="337" y1="210" x2="452" y2="210" stroke="#00ffe0" stroke-width="2" opacity="0.7"/>
  <line x1="367" y1="232" x2="452" y2="232" stroke="#00ffe0" stroke-width="1" opacity="0.35"/>

  <!-- Köşe kareler -->
  <rect x="178" y="158" width="10" height="10" fill="#7b2fff"/>
  <rect x="324" y="158" width="10" height="10" fill="#00ffe0"/>

  <!-- Ana metin -->
  <text x="256" y="290"
    font-family="Arial Black, Arial, sans-serif"
    font-weight="900"
    font-size="108"
    fill="#ffffff"
    text-anchor="middle"
    letter-spacing="2">S</text>

  <!-- Nokta -->
  <circle cx="222" cy="318" r="5" fill="#00ffe0"/>

  <!-- Yatay çizgiler -->
  <line x1="120" y1="316" x2="215" y2="316" stroke="#00ffe0" stroke-width="2" opacity="0.8"/>
  <line x1="233" y1="316" x2="392" y2="316" stroke="#7b2fff" stroke-width="2" opacity="0.7"/>

  <!-- TODAY yazısı -->
  <text x="260" y="358"
    font-family="Arial, sans-serif"
    font-weight="300"
    font-size="22"
    fill="#00ffe0"
    text-anchor="middle"
    letter-spacing="14">TODAY</text>

</svg>
